<svg width="530" height="530" viewBox="0 0 530 530" fill="none" xmlns="http://www.w3.org/2000/svg">
<g clip-path="url(#clip0_1863_321)" filter="url(#filter0_d_1863_321)">
<path d="M517.653 194.586C512.745 175.761 505.666 157.55 496.557 140.309L452.914 176.297L353.384 258.256L396.742 294.12L469.163 234.386C470.206 242.708 470.743 251.08 470.77 259.465C470.8 287.56 464.924 315.359 453.512 341.112L497.092 377.131C526.312 320.78 533.581 255.851 517.529 194.586H517.653Z" fill="#0000FD"/>
<path d="M266.888 335.21L251.619 322.442L192.114 272.721L176.562 259.702L77.2944 176.666L33.9103 140.309C24.7031 157.734 17.5305 176.153 12.5331 195.206C-3.69028 257.127 3.37556 322.822 32.399 379.912L76.0665 343.524C64.8448 317.642 59.0692 289.745 59.0971 261.552C59.121 252.867 59.6888 244.193 60.7971 235.58L133.209 296.03L148.793 309.046L208.234 358.769L223.504 371.536L266.888 407.831L310.492 371.506L326.864 357.828L283.48 321.563L266.888 335.21Z" fill="#0000FD"/>
<path d="M137.25 100.647C142.325 96.4776 147.61 92.6006 153.103 89.0153C200.832 57.453 259.548 47.082 315.233 60.3782C370.917 73.6741 418.572 109.444 446.821 159.148L489.429 123.566C450.737 61.1843 387.513 17.9469 315.255 4.45233C242.997 -9.04218 168.386 8.45383 109.711 52.6514C104.51 56.5599 99.5286 60.6872 94.6412 64.9708C80.6874 77.2412 68.0842 90.9619 57.0454 105.9L414.614 405.408C344.692 476.667 233.647 487.653 151.066 431.485C145.521 427.734 140.164 423.7 135.026 419.447C115.403 403.103 98.9632 383.293 86.5269 361.008L43.8242 396.623C91.2726 474.413 175.923 521.889 267.174 521.889C358.426 521.889 443.076 474.413 490.525 396.623L447.854 360.915L137.25 100.647Z" fill="#0000FD"/>
</g>
<defs>
<filter id="filter0_d_1863_321" x="0" y="0" width="529.872" height="529.889" filterUnits="userSpaceOnUse" color-interpolation-filters="sRGB">
<feFlood flood-opacity="0" result="BackgroundImageFix"/>
<feColorMatrix in="SourceAlpha" type="matrix" values="0 0 0 0 0 0 0 0 0 0 0 0 0 0 0 0 0 0 127 0" result="hardAlpha"/>
<feOffset dy="4"/>
<feGaussianBlur stdDeviation="2"/>
<feComposite in2="hardAlpha" operator="out"/>
<feColorMatrix type="matrix" values="0 0 0 0 0 0 0 0 0 0 0 0 0 0 0 0 0 0 0.25 0"/>
<feBlend mode="normal" in2="BackgroundImageFix" result="effect1_dropShadow_1863_321"/>
<feBlend mode="normal" in="SourceGraphic" in2="effect1_dropShadow_1863_321" result="shape"/>
</filter>
<clipPath id="clip0_1863_321">
<rect width="521.872" height="521.889" fill="white" transform="translate(4)"/>
</clipPath>
</defs>
</svg>
